<svg id="visual" viewBox="0 0 900 600" width="900" height="600" xmlns="http://www.w3.org/2000/svg" xmlns:xlink="http://www.w3.org/1999/xlink" version="1.1"><rect x="0" y="0" width="900" height="600" fill="#FF0066"></rect><g transform="translate(554.168610883652 199.39109315268507)"><path d="M264.1 -386.9C278.9 -352.7 184.1 -190.8 184.5 -84.7C185 21.5 280.8 71.9 277.3 92.4C273.8 112.9 171 103.4 108.2 208C45.5 312.6 22.7 531.3 -37.4 582.8C-97.6 634.3 -195.1 518.6 -295.6 426.2C-396.1 333.9 -499.6 264.9 -484.2 186.9C-468.9 108.9 -334.8 21.8 -276.9 -69.5C-219 -160.8 -237.3 -256.3 -203.9 -284.5C-170.5 -312.6 -85.2 -273.3 19.7 -300.4C124.6 -327.5 249.2 -421 264.1 -386.9" fill="#BB004B"></path></g></svg>