<svg id="visual" viewBox="0 0 900 600" width="900" height="600" xmlns="http://www.w3.org/2000/svg" xmlns:xlink="http://www.w3.org/1999/xlink" version="1.1"><rect x="0" y="0" width="900" height="600" fill="#001220"></rect><defs><linearGradient id="grad1_0" x1="33.3%" y1="0%" x2="100%" y2="100%"><stop offset="20%" stop-color="#001220" stop-opacity="1"></stop><stop offset="80%" stop-color="#001220" stop-opacity="1"></stop></linearGradient></defs><defs><linearGradient id="grad2_0" x1="0%" y1="0%" x2="66.7%" y2="100%"><stop offset="20%" stop-color="#001220" stop-opacity="1"></stop><stop offset="80%" stop-color="#001220" stop-opacity="1"></stop></linearGradient></defs><g transform="translate(900, 0)"><path d="M0 486.7C-71.3 487.6 -142.7 488.5 -186.3 449.7C-229.9 410.9 -245.8 332.4 -283.5 283.5C-321.3 234.7 -381 215.7 -418.5 173.4C-456 131.1 -471.4 65.5 -486.7 0L0 0Z" fill="#FBAE3C"></path></g><g transform="translate(0, 600)"><path d="M0 -486.7C67.4 -484.5 134.8 -482.2 186.3 -449.7C237.7 -417.2 273.2 -354.5 301.9 -301.9C330.7 -249.4 352.8 -207.1 382.5 -158.4C412.2 -109.8 449.5 -54.9 486.7 0L0 0Z" fill="#FBAE3C"></path></g></svg>