<svg id="visual" viewBox="0 0 900 600" width="900" height="600" xmlns="http://www.w3.org/2000/svg" xmlns:xlink="http://www.w3.org/1999/xlink" version="1.1"><rect width="900" height="600" fill="#931F1F"></rect><g><g transform="translate(898 109)"><path d="M86.6 -30.3C99.5 11.5 88.4 59 57.6 82.1C26.7 105.2 -23.9 103.9 -57.6 79.4C-91.4 54.8 -108.2 7.1 -95.8 -34.1C-83.4 -75.2 -41.7 -109.8 -2.4 -109.1C36.9 -108.3 73.7 -72.1 86.6 -30.3Z" stroke="#F7760E" fill="none" stroke-width="20"></path></g><g transform="translate(96 281)"><path d="M51.1 -17.4C58.3 5.8 51 32.9 32.1 47.3C13.2 61.8 -17.1 63.6 -36.7 49.6C-56.2 35.6 -65 5.8 -57.1 -18.3C-49.2 -42.4 -24.6 -60.7 -1.3 -60.3C21.9 -59.9 43.8 -40.6 51.1 -17.4Z" stroke="#F7760E" fill="none" stroke-width="20"></path></g><g transform="translate(335 576)"><path d="M54.5 -17C61.2 3.1 50.9 29.5 32.7 42.1C14.4 54.7 -11.8 53.6 -29.5 40.7C-47.1 27.9 -56.2 3.3 -49.8 -16.2C-43.5 -35.8 -21.8 -50.3 1 -50.7C23.8 -51 47.7 -37.1 54.5 -17Z" stroke="#F7760E" fill="none" stroke-width="20"></path></g></g></svg>