<svg id="visual" viewBox="0 0 900 600" width="900" height="600" xmlns="http://www.w3.org/2000/svg" xmlns:xlink="http://www.w3.org/1999/xlink" version="1.1"><g stroke-width="1" stroke-linejoin="bevel"><path d="M383 316L327 364L365 422Z" fill="#15384f" stroke="#15384f"></path><path d="M365 422L474 391L383 316Z" fill="#277297" stroke="#277297"></path><path d="M339 533L396 498L365 422Z" fill="#112e42" stroke="#112e42"></path><path d="M365 422L396 498L474 391Z" fill="#277297" stroke="#277297"></path><path d="M383 316L265 289L327 364Z" fill="#19435d" stroke="#19435d"></path><path d="M232 525L339 533L365 422Z" fill="#00101c" stroke="#00101c"></path><path d="M188 424L365 422L327 364Z" fill="#0c2435" stroke="#0c2435"></path><path d="M507 600L494 505L396 498Z" fill="#00101c" stroke="#00101c"></path><path d="M396 498L494 505L474 391Z" fill="#205a7a" stroke="#205a7a"></path><path d="M635 321L530 260L474 391Z" fill="#0c2435" stroke="#0c2435"></path><path d="M474 391L530 260L383 316Z" fill="#246688" stroke="#246688"></path><path d="M383 316L312 177L265 289Z" fill="#081a28" stroke="#081a28"></path><path d="M530 260L464 204L383 316Z" fill="#081a28" stroke="#081a28"></path><path d="M464 204L388 171L383 316Z" fill="#297ea6" stroke="#297ea6"></path><path d="M265 289L188 424L327 364Z" fill="#205a7a" stroke="#205a7a"></path><path d="M388 171L312 177L383 316Z" fill="#19435d" stroke="#19435d"></path><path d="M265 289L160 320L188 424Z" fill="#19435d" stroke="#19435d"></path><path d="M188 424L232 525L365 422Z" fill="#00101c" stroke="#00101c"></path><path d="M234 167L160 320L265 289Z" fill="#19435d" stroke="#19435d"></path><path d="M301 600L362 600L339 533Z" fill="#112e42" stroke="#112e42"></path><path d="M339 533L362 600L396 498Z" fill="#112e42" stroke="#112e42"></path><path d="M232 525L301 600L339 533Z" fill="#0c2435" stroke="#0c2435"></path><path d="M270 135L234 167L312 177Z" fill="#0c2435" stroke="#0c2435"></path><path d="M312 177L234 167L265 289Z" fill="#112e42" stroke="#112e42"></path><path d="M611 495L629 423L494 505Z" fill="#0c2435" stroke="#0c2435"></path><path d="M494 505L629 423L474 391Z" fill="#081a28" stroke="#081a28"></path><path d="M464 204L415 117L388 171Z" fill="#0c2435" stroke="#0c2435"></path><path d="M388 171L415 117L312 177Z" fill="#1d4e6b" stroke="#1d4e6b"></path><path d="M533 74L415 117L464 204Z" fill="#297ea6" stroke="#297ea6"></path><path d="M629 423L635 321L474 391Z" fill="#112e42" stroke="#112e42"></path><path d="M530 260L632 183L464 204Z" fill="#19435d" stroke="#19435d"></path><path d="M415 117L270 135L312 177Z" fill="#205a7a" stroke="#205a7a"></path><path d="M592 600L611 495L494 505Z" fill="#246688" stroke="#246688"></path><path d="M362 600L507 600L396 498Z" fill="#112e42" stroke="#112e42"></path><path d="M101 600L227 600L232 525Z" fill="#277297" stroke="#277297"></path><path d="M232 525L227 600L301 600Z" fill="#277297" stroke="#277297"></path><path d="M104 488L232 525L188 424Z" fill="#246688" stroke="#246688"></path><path d="M92 215L93 283L160 320Z" fill="#297ea6" stroke="#297ea6"></path><path d="M68 429L104 488L188 424Z" fill="#1d4e6b" stroke="#1d4e6b"></path><path d="M92 215L160 320L234 167Z" fill="#246688" stroke="#246688"></path><path d="M68 429L188 424L160 320Z" fill="#00101c" stroke="#00101c"></path><path d="M507 600L592 600L494 505Z" fill="#15384f" stroke="#15384f"></path><path d="M694 417L694 333L629 423Z" fill="#0c2435" stroke="#0c2435"></path><path d="M635 321L632 183L530 260Z" fill="#205a7a" stroke="#205a7a"></path><path d="M629 423L694 333L635 321Z" fill="#277297" stroke="#277297"></path><path d="M635 321L664 196L632 183Z" fill="#1d4e6b" stroke="#1d4e6b"></path><path d="M694 417L629 423L672 512Z" fill="#205a7a" stroke="#205a7a"></path><path d="M672 512L629 423L611 495Z" fill="#0c2435" stroke="#0c2435"></path><path d="M93 283L68 429L160 320Z" fill="#277297" stroke="#277297"></path><path d="M662 600L672 512L611 495Z" fill="#0c2435" stroke="#0c2435"></path><path d="M161 85L92 215L234 167Z" fill="#19435d" stroke="#19435d"></path><path d="M93 283L0 374L68 429Z" fill="#246688" stroke="#246688"></path><path d="M694 333L664 196L635 321Z" fill="#277297" stroke="#277297"></path><path d="M639 92L533 74L632 183Z" fill="#081a28" stroke="#081a28"></path><path d="M632 183L533 74L464 204Z" fill="#277297" stroke="#277297"></path><path d="M185 0L161 85L270 135Z" fill="#15384f" stroke="#15384f"></path><path d="M361 0L270 135L415 117Z" fill="#205a7a" stroke="#205a7a"></path><path d="M270 135L161 85L234 167Z" fill="#15384f" stroke="#15384f"></path><path d="M104 488L101 600L232 525Z" fill="#297ea6" stroke="#297ea6"></path><path d="M0 600L101 600L104 488Z" fill="#081a28" stroke="#081a28"></path><path d="M592 600L662 600L611 495Z" fill="#1d4e6b" stroke="#1d4e6b"></path><path d="M803 502L764 404L694 417Z" fill="#112e42" stroke="#112e42"></path><path d="M500 0L361 0L415 117Z" fill="#19435d" stroke="#19435d"></path><path d="M681 106L639 92L632 183Z" fill="#205a7a" stroke="#205a7a"></path><path d="M533 74L500 0L415 117Z" fill="#19435d" stroke="#19435d"></path><path d="M361 0L296 0L270 135Z" fill="#205a7a" stroke="#205a7a"></path><path d="M0 310L0 374L93 283Z" fill="#297ea6" stroke="#297ea6"></path><path d="M68 429L0 479L104 488Z" fill="#15384f" stroke="#15384f"></path><path d="M0 310L93 283L92 215Z" fill="#00101c" stroke="#00101c"></path><path d="M694 417L764 404L694 333Z" fill="#246688" stroke="#246688"></path><path d="M694 333L777 211L664 196Z" fill="#297ea6" stroke="#297ea6"></path><path d="M664 196L681 106L632 183Z" fill="#112e42" stroke="#112e42"></path><path d="M803 502L694 417L672 512Z" fill="#205a7a" stroke="#205a7a"></path><path d="M0 162L0 310L92 215Z" fill="#00101c" stroke="#00101c"></path><path d="M591 0L500 0L533 74Z" fill="#0c2435" stroke="#0c2435"></path><path d="M0 374L0 479L68 429Z" fill="#297ea6" stroke="#297ea6"></path><path d="M777 211L681 106L664 196Z" fill="#1d4e6b" stroke="#1d4e6b"></path><path d="M639 92L591 0L533 74Z" fill="#19435d" stroke="#19435d"></path><path d="M764 404L786 296L694 333Z" fill="#0c2435" stroke="#0c2435"></path><path d="M296 0L185 0L270 135Z" fill="#277297" stroke="#277297"></path><path d="M64 72L0 162L92 215Z" fill="#15384f" stroke="#15384f"></path><path d="M676 0L591 0L639 92Z" fill="#0c2435" stroke="#0c2435"></path><path d="M786 296L777 211L694 333Z" fill="#15384f" stroke="#15384f"></path><path d="M681 106L676 0L639 92Z" fill="#112e42" stroke="#112e42"></path><path d="M64 72L92 215L161 85Z" fill="#246688" stroke="#246688"></path><path d="M68 0L64 72L161 85Z" fill="#277297" stroke="#277297"></path><path d="M791 600L803 502L672 512Z" fill="#277297" stroke="#277297"></path><path d="M764 404L900 377L786 296Z" fill="#112e42" stroke="#112e42"></path><path d="M0 479L0 600L104 488Z" fill="#00101c" stroke="#00101c"></path><path d="M64 72L0 112L0 162Z" fill="#1d4e6b" stroke="#1d4e6b"></path><path d="M662 600L791 600L672 512Z" fill="#112e42" stroke="#112e42"></path><path d="M804 0L676 0L681 106Z" fill="#112e42" stroke="#112e42"></path><path d="M185 0L68 0L161 85Z" fill="#081a28" stroke="#081a28"></path><path d="M64 72L0 0L0 112Z" fill="#112e42" stroke="#112e42"></path><path d="M900 482L900 377L764 404Z" fill="#00101c" stroke="#00101c"></path><path d="M786 296L900 212L777 211Z" fill="#297ea6" stroke="#297ea6"></path><path d="M777 211L831 74L681 106Z" fill="#1d4e6b" stroke="#1d4e6b"></path><path d="M900 482L764 404L803 502Z" fill="#246688" stroke="#246688"></path><path d="M900 377L900 336L786 296Z" fill="#0c2435" stroke="#0c2435"></path><path d="M900 600L900 482L803 502Z" fill="#205a7a" stroke="#205a7a"></path><path d="M68 0L0 0L64 72Z" fill="#277297" stroke="#277297"></path><path d="M900 212L831 74L777 211Z" fill="#205a7a" stroke="#205a7a"></path><path d="M900 336L900 212L786 296Z" fill="#1d4e6b" stroke="#1d4e6b"></path><path d="M900 0L804 0L831 74Z" fill="#246688" stroke="#246688"></path><path d="M831 74L804 0L681 106Z" fill="#0c2435" stroke="#0c2435"></path><path d="M791 600L900 600L803 502Z" fill="#205a7a" stroke="#205a7a"></path><path d="M900 212L900 83L831 74Z" fill="#277297" stroke="#277297"></path><path d="M900 83L900 0L831 74Z" fill="#297ea6" stroke="#297ea6"></path></g></svg>